ffmpeg version N-55863-g9f38fac053-static https://johnvansickle.com/ffmpeg/  Copyright (c) 2000-2021 the FFmpeg developers
  built with gcc 8 (Debian 8.3.0-6)
  configuration: --enable-gpl --enable-version3 --enable-static --disable-debug --disable-ffplay --disable-indev=sndio --disable-outdev=sndio --cc=gcc --enable-fontconfig --enable-frei0r --enable-gnutls --enable-gmp --enable-libgme --enable-gray --enable-libaom --enable-libfribidi --enable-libass --enable-libvmaf --enable-libfreetype --enable-libmp3lame --enable-libopencore-amrnb --enable-libopencore-amrwb --enable-libopenjpeg --enable-librubberband --enable-libsoxr --enable-libspeex --enable-libsrt --enable-libvorbis --enable-libopus --enable-libtheora --enable-libvidstab --enable-libvo-amrwbenc --enable-libvpx --enable-libwebp --enable-libx264 --enable-libx265 --enable-libxml2 --enable-libdav1d --enable-libxvid --enable-libzvbi --enable-libzimg
  libavutil      56. 64.100 / 56. 64.100
  libavcodec     58.119.100 / 58.119.100
  libavformat    58. 65.101 / 58. 65.101
  libavdevice    58. 11.103 / 58. 11.103
  libavfilter     7.100.100 /  7.100.100
  libswscale      5.  8.100 /  5.  8.100
  libswresample   3.  8.100 /  3.  8.100
  libpostproc    55.  8.100 / 55.  8.100
Input #0, mov,mp4,m4a,3gp,3g2,mj2, from '/home/yiaapc5/public_html/f_data/data_userfiles/user_uploads/3631926655/v/1613849745.mp4':
  Metadata:
    major_brand     : mp42
    minor_version   : 0
    compatible_brands: isommp42
    creation_time   : 2021-02-15T00:00:36.000000Z
  Duration: 00:02:52.62, start: 0.000000, bitrate: 1695 kb/s
    Stream #0:0(und): Video: h264 (Main) (avc1 / 0x31637661), yuv420p(tv, bt709), 1280x720 [SAR 1:1 DAR 16:9], 1563 kb/s, 30 fps, 30 tbr, 15360 tbn, 60 tbc (default)
    Metadata:
      creation_time   : 2021-02-15T00:00:36.000000Z
      handler_name    : ISO Media file produced by Google Inc. Created on: 02/14/2021.
      vendor_id       : [0][0][0][0]
    Stream #0:1(eng): Audio: aac (LC) (mp4a / 0x6134706D), 44100 Hz, stereo, fltp, 127 kb/s (default)
    Metadata:
      creation_time   : 2021-02-15T00:00:36.000000Z
      handler_name    : ISO Media file produced by Google Inc. Created on: 02/14/2021.
      vendor_id       : [0][0][0][0]
Codec AVOption rc_eq (Set rate control equation. When computing the expression, besides the standard functions defined in the section 'Expression Evaluation', the following functions are available: bits2qp(bits), qp2bits(qp). Also the following constants are available: iTex pTex tex mv fCode iCount mcVar var isI isP isB avgQP qComp avgIITex avgPITex avgPPTex avgBPTex avgTex.) specified for output file #0 (/home/yiaapc5/public_html/f_data/data_userfiles/user_media/3631926655/v/6c1c2bbb6bc0c94a4b1b8988b13fc5a7.mob.nomob.mp4) has not been used for any stream. The most likely reason is either wrong type (e.g. a video option with no video streams) or that it is a private option of some encoder which was not actually used for any stream.
Stream mapping:
  Stream #0:0 -> #0:0 (h264 (native) -> h264 (libx264))
  Stream #0:1 -> #0:1 (aac (native) -> aac (native))
Press [q] to stop, [?] for help
[libx264 @ 0x60c2a40] Application has requested 32 threads. Using a thread count greater than 16 is not recommended.
[libx264 @ 0x60c2a40] using SAR=136/135
[libx264 @ 0x60c2a40] frame MB size (30x17) > level limit (396)
[libx264 @ 0x60c2a40] VBV bitrate (10000) > level limit (768)
[libx264 @ 0x60c2a40] VBV buffer (10000) > level limit (2000)
[libx264 @ 0x60c2a40] MB rate (15300) > level limit (11880)
[libx264 @ 0x60c2a40] using cpu capabilities: MMX2 SSE2Fast SSSE3 SSE4.2 AVX
[libx264 @ 0x60c2a40] profile Constrained Baseline, level 1.3, 4:2:0, 8-bit
[libx264 @ 0x60c2a40] 264 - core 161 r3040 35417dc - H.264/MPEG-4 AVC codec - Copyleft 2003-2021 - http://www.videolan.org/x264.html - options: cabac=0 ref=1 deblock=1:0:0 analyse=0x1:0 me=hex subme=1 psy=1 psy_rd=1.00:0.00 mixed_ref=0 me_range=16 chroma_me=1 trellis=0 8x8dct=0 cqm=0 deadzone=21,11 fast_pskip=1 chroma_qp_offset=0 threads=32 lookahead_threads=2 sliced_threads=0 nr=0 decimate=1 interlaced=0 bluray_compat=0 constrained_intra=0 bframes=0 weightp=0 keyint=300 keyint_min=25 scenecut=40 intra_refresh=0 rc_lookahead=30 rc=abr mbtree=1 bitrate=1000 ratetol=1.0 qcomp=0.60 qpmin=10 qpmax=51 qpstep=4 vbv_maxrate=10000 vbv_bufsize=10000 nal_hrd=none filler=0 ip_ratio=1.41 aq=1:1.00
Output #0, mp4, to '/home/yiaapc5/public_html/f_data/data_userfiles/user_media/3631926655/v/6c1c2bbb6bc0c94a4b1b8988b13fc5a7.mob.nomob.mp4':
  Metadata:
    major_brand     : mp42
    minor_version   : 0
    compatible_brands: isommp42
    encoder         : Lavf58.65.101
    Stream #0:0(und): Video: h264 (avc1 / 0x31637661), yuv420p(tv, bt709, progressive), 480x272 [SAR 136:135 DAR 16:9], q=2-31, 1000 kb/s, 30 fps, 15360 tbn (default)
    Metadata:
      creation_time   : 2021-02-15T00:00:36.000000Z
      handler_name    : ISO Media file produced by Google Inc. Created on: 02/14/2021.
      vendor_id       : [0][0][0][0]
      encoder         : Lavc58.119.100 libx264
    Side data:
      cpb: bitrate max/min/avg: 10000000/0/1000000 buffer size: 10000000 vbv_delay: N/A
    Stream #0:1(eng): Audio: aac (LC) (mp4a / 0x6134706D), 44100 Hz, stereo, fltp, 127 kb/s (default)
    Metadata:
      creation_time   : 2021-02-15T00:00:36.000000Z
      handler_name    : ISO Media file produced by Google Inc. Created on: 02/14/2021.
      vendor_id       : [0][0][0][0]
      encoder         : Lavc58.119.100 aac
frame=    1 fps=0.0 q=0.0 size=       0kB time=00:00:00.41 bitrate=   0.9kbits/s speed=8.25x    frame=  175 fps=0.0 q=26.0 size=     512kB time=00:00:06.22 bitrate= 674.1kbits/s speed=11.3x    frame=  360 fps=342 q=27.0 size=    1280kB time=00:00:12.26 bitrate= 855.3kbits/s speed=11.6x    frame=  525 fps=337 q=28.0 size=    2048kB time=00:00:17.83 bitrate= 940.8kbits/s speed=11.5x    frame=  712 fps=346 q=28.0 size=    3072kB time=00:00:23.87 bitrate=1054.3kbits/s speed=11.6x    frame=  899 fps=352 q=28.0 size=    3840kB time=00:00:30.00 bitrate=1048.6kbits/s speed=11.7x    frame= 1106 fps=362 q=27.0 size=    4608kB time=00:00:36.89 bitrate=1023.1kbits/s speed=12.1x    frame= 1316 fps=370 q=26.0 size=    5376kB time=00:00:44.11 bitrate= 998.2kbits/s speed=12.4x    frame= 1528 fps=376 q=24.0 size=    6144kB time=00:00:51.26 bitrate= 981.7kbits/s speed=12.6x    frame= 1719 fps=377 q=26.0 size=    7168kB time=00:00:57.74 bitrate=1016.8kbits/s speed=12.7x    frame= 1907 fps=377 q=26.0 size=    8192kB time=00:01:03.80 bitrate=1051.7kbits/s speed=12.6x    frame= 2111 fps=380 q=26.0 size=    9216kB time=00:01:10.33 bitrate=1073.4kbits/s speed=12.6x    frame= 2306 fps=380 q=26.0 size=    9984kB time=00:01:16.88 bitrate=1063.8kbits/s speed=12.7x    frame= 2508 fps=382 q=25.0 size=   10752kB time=00:01:23.77 bitrate=1051.4kbits/s speed=12.8x    frame= 2717 fps=385 q=27.0 size=   12032kB time=00:01:30.74 bitrate=1086.2kbits/s speed=12.8x    frame= 2929 fps=387 q=27.0 size=   13312kB time=00:01:37.70 bitrate=1116.1kbits/s speed=12.9x    frame= 3141 fps=389 q=26.0 size=   14080kB time=00:01:44.72 bitrate=1101.4kbits/s speed=  13x    frame= 3347 fps=391 q=25.0 size=   14848kB time=00:01:51.64 bitrate=1089.5kbits/s speed=  13x    frame= 3551 fps=392 q=26.0 size=   15616kB time=00:01:58.60 bitrate=1078.6kbits/s speed=13.1x    frame= 3757 fps=393 q=26.0 size=   16640kB time=00:02:05.57 bitrate=1085.5kbits/s speed=13.1x    frame= 3950 fps=392 q=26.0 size=   17664kB time=00:02:11.77 bitrate=1098.1kbits/s speed=13.1x    frame= 4145 fps=392 q=26.0 size=   18432kB time=00:02:18.25 bitrate=1092.2kbits/s speed=13.1x    frame= 4339 fps=392 q=27.0 size=   19456kB time=00:02:25.05 bitrate=1098.8kbits/s speed=13.1x    frame= 4524 fps=391 q=28.0 size=   20736kB time=00:02:31.11 bitrate=1124.1kbits/s speed=13.1x    frame= 4735 fps=392 q=27.0 size=   21504kB time=00:02:38.08 bitrate=1114.4kbits/s speed=13.1x    frame= 4963 fps=395 q=24.0 size=   21504kB time=00:02:45.51 bitrate=1064.3kbits/s speed=13.2x    frame= 5178 fps=397 q=-1.0 Lsize=   21991kB time=00:02:52.59 bitrate=1043.8kbits/s speed=13.2x    
video:19459kB audio:2388kB subtitle:0kB other streams:0kB global headers:0kB muxing overhead: 0.660170%
[libx264 @ 0x60c2a40] frame I:38    Avg QP:18.82  size: 25633
[libx264 @ 0x60c2a40] frame P:5140  Avg QP:21.92  size:  3687
[libx264 @ 0x60c2a40] mb I  I16..4:  7.1%  0.0% 92.9%
[libx264 @ 0x60c2a40] mb P  I16..4:  2.1%  0.0%  0.0%  P16..4: 61.7%  0.0%  0.0%  0.0%  0.0%    skip:36.2%
[libx264 @ 0x60c2a40] final ratefactor: 19.54
[libx264 @ 0x60c2a40] coded y,uvDC,uvAC intra: 69.6% 70.6% 50.0% inter: 29.2% 23.7% 7.3%
[libx264 @ 0x60c2a40] i16 v,h,dc,p: 63% 17% 12%  8%
[libx264 @ 0x60c2a40] i4 v,h,dc,ddl,ddr,vr,hd,vl,hu: 23% 20%  8%  9%  7%  7%  8%  8% 10%
[libx264 @ 0x60c2a40] i8c dc,h,v,p: 34% 19% 39%  9%
[libx264 @ 0x60c2a40] kb/s:923.52
[aac @ 0x612d3c0] Qavg: 7768.450
